<svg id="Layer_1" data-name="Layer 1" xmlns="http://www.w3.org/2000/svg" viewBox="0 0 124.41 28.02"><defs><style>.cls-1{fill:#a1a39c;}.cls-2{fill:#857773;}.cls-3{fill:#928b85;}.cls-4{fill:#755f5b;}.cls-5{fill:#96918b;}.cls-6{fill:#948f89;}.cls-7{fill:#7d6c67;}.cls-8{fill:#8d847f;}.cls-9{fill:#9e9e97;}.cls-10{fill:#8c827d;}.cls-11{fill:#9a9992;}.cls-12{fill:#847672;}.cls-13{fill:#80706b;}.cls-14{fill:#8f8680;}.cls-15{fill:#9c9b95;}.cls-16{fill:#a0a29b;}.cls-17{fill:#7d6b67;}.cls-18{fill:#8a807b;}.cls-19{fill:#81716d;}.cls-20{fill:#98958f;}.cls-21{fill:#82736f;}.cls-22{fill:#857873;}.cls-23{fill:#897f79;}.cls-24{fill:#9d9c96;}.cls-25{fill:#796662;}.cls-26{fill:#887c77;}.cls-27{fill:#786460;}.cls-28{fill:#908a84;}.cls-29{fill:#fefefe;opacity:0;}</style></defs><path class="cls-1" d="M190.24,81.42c.36.55.75,1.07,1.06,1.64.67,1.22,1.29,2.47,1.93,3.7.32.61.66,1.21,1,1.81a2.11,2.11,0,0,0,3.18.69,4.2,4.2,0,0,0,1.34-1.41,15,15,0,0,0,1.51-3.31,3.57,3.57,0,0,0,.07-.37h-2.85V83h3.23c.06-.18.11-.31.15-.44.56-2,1.11-4,1.67-6.06a1.08,1.08,0,0,1,.08-.19,1.22,1.22,0,0,0,.74-.18,5,5,0,0,1,.72-.22,3.07,3.07,0,0,1-.07.42q-.63,2.44-1.27,4.9c-.15.57-.32,1.13-.48,1.71a24.9,24.9,0,0,0,4,0,2.11,2.11,0,0,0,0-.25q-1-3.34-1.93-6.69a1.13,1.13,0,0,0-.16-.26c.36-.15.73-.29,1.09-.46s.87-.45,1.32-.65,1-.41,1.44-.62c.31,1,.61,2,.91,3,.54,1.84,1.07,3.69,1.61,5.53,0,.15.1.3.17.5h2.71v1.06a3.35,3.35,0,0,1-1.18.08c-.39,0-.77,0-1.22,0,.12.44.23.79.33,1.14.24.81.47,1.62.71,2.43.18.6.33.69,1,.57a5.53,5.53,0,0,0,.73-.27l.22.41a5.8,5.8,0,0,1-2.5,1.14,4.63,4.63,0,0,1-1.89,0,2.27,2.27,0,0,1-1.89-1.7L206.88,85c-.08-.27-.17-.54-.26-.83h-4.75c-.2.54-.39,1.08-.6,1.62a11.49,11.49,0,0,1-1.63,3,4.72,4.72,0,0,1-3.79,1.89l-.33,0a3.92,3.92,0,0,0,1.79,1.57,1.63,1.63,0,0,0,1.26-.22l.27.46a5.51,5.51,0,0,1-1.63.69,7,7,0,0,1-2.77.3,4.16,4.16,0,0,1-2.9-1.75,11.77,11.77,0,0,1-1-1.62c-1.2-2.35-2.38-4.72-3.57-7.08a4.43,4.43,0,0,0,.65-.18l2.32-1.1A1.54,1.54,0,0,0,190.24,81.42Z" transform="translate(-89.59 -66)"/><path class="cls-2" d="M137.12,79.1c0-.2,0-.39,0-.58V73.07c0-.78-.32-1.11-1.1-1a4.23,4.23,0,0,0-3.09,1.41,1.89,1.89,0,0,0-.44,1.73.88.88,0,0,0,1.34.63,4,4,0,0,0,.48-.32.82.82,0,0,1,1.31.32,1.82,1.82,0,0,1-.57,2.27,2.64,2.64,0,0,1-3.45-.44,2.73,2.73,0,0,1-.63-1.65,4.05,4.05,0,0,1,1.54-3.49A7.88,7.88,0,0,1,136.15,71a25.69,25.69,0,0,1,7.43-.21,11.89,11.89,0,0,1,3.18.9,7.45,7.45,0,0,1,2,1.14c.17.15.31.33.47.49a2.64,2.64,0,0,0-.3.07c-.72.35-1.43.71-2.16,1.05a3,3,0,0,1-.55.15,5.82,5.82,0,0,0-1.13-1.84,3,3,0,0,0-2.6-1,1.18,1.18,0,0,0-1.15,1.11,4.54,4.54,0,0,0,0,.74l0,3.86a6,6,0,0,0-.94.28c-.77.36-1.53.77-2.3,1.13A6.58,6.58,0,0,1,137.12,79.1Z" transform="translate(-89.59 -66)"/><path class="cls-3" d="M151.26,79c0,.26.06.52.06.78a10.74,10.74,0,0,1-1.64,5.78,9,9,0,0,1-6.15,4,12.59,12.59,0,0,1-4.58,0,4.19,4.19,0,0,1-.76-.24,1.48,1.48,0,0,1-.94-1.07,5.25,5.25,0,0,1-.17-1c0-1,0-2,0-3.07a.79.79,0,0,1,0-.2,3.44,3.44,0,0,0,.55-.15l3.13-1.51a2.35,2.35,0,0,1,.45-.14c0,.19,0,.39,0,.58,0,1.44,0,2.89,0,4.33,0,1,.43,1.37,1.37,1.33a3.31,3.31,0,0,0,2.86-1.62,7.71,7.71,0,0,0,1.07-3c.16-1,.23-2.06.33-3.09a.8.8,0,0,0,.75-.06c1-.48,1.93-.94,2.9-1.4C150.78,79.13,151,79.07,151.26,79Z" transform="translate(-89.59 -66)"/><path class="cls-4" d="M103.68,74a14.19,14.19,0,0,0-.67-1.48,1.68,1.68,0,0,0-1.72-.9,1.16,1.16,0,0,0-1.13,1.23c0,1.1,0,2.21,0,3.32l0,1.53a4.59,4.59,0,0,0-.75.2c-.7.32-1.38.7-2.09,1a2.29,2.29,0,0,1-1.25.37c0-1.41,0-2.82,0-4.23,0-.72,0-1.45,0-2.17s-.24-.89-.86-.89a4.84,4.84,0,0,0-3.43,1.28A1.92,1.92,0,0,0,91.07,75a.91.91,0,0,0,1.51.75,2.48,2.48,0,0,0,.39-.27.82.82,0,0,1,1.27.35,1.76,1.76,0,0,1-.15,1.81,2.15,2.15,0,0,1-2,.9A2.5,2.5,0,0,1,89.6,76a3.91,3.91,0,0,1,1.64-3.49,8.71,8.71,0,0,1,3.5-1.41,25.75,25.75,0,0,1,7.22-.39,8.23,8.23,0,0,1,3.4,1,3.18,3.18,0,0,1,1.27,1l-2.5,1.24A2.32,2.32,0,0,1,103.68,74Z" transform="translate(-89.59 -66)"/><path class="cls-5" d="M188.45,74.87a14.77,14.77,0,0,0-.44-1.74,3.25,3.25,0,0,0-.7-1,1.59,1.59,0,0,0-1.66-.39,1.07,1.07,0,0,0-.82,1.15v3.28c0,.24,0,.49,0,.74a3.75,3.75,0,0,0-.75.19c-.75.34-1.48.72-2.22,1.09a2.49,2.49,0,0,1-.33.16c-.33.11-.46,0-.6-.29,0-.08-.13-.13-.2-.2,0-1.57,0-3.14,0-4.71,0-.9-.26-1.17-1.17-1.1a5,5,0,0,0-2.88,1.07,2.09,2.09,0,0,0-.92,1.81.93.93,0,0,0,1.52.81,1.8,1.8,0,0,0,.39-.27c.38-.41,1-.09,1.25.3a1.84,1.84,0,0,1-.51,2.28,2.57,2.57,0,0,1-3.91-1.11,3.75,3.75,0,0,1,.83-3.88,5.56,5.56,0,0,1,2.5-1.53,15.21,15.21,0,0,1,3.77-.76c1-.08,2-.15,3.06-.16a11.77,11.77,0,0,1,5,.78,4.4,4.4,0,0,1,2.11,1.84c.07.12.1.26.16.39-.83.39-1.66.77-2.47,1.18A1,1,0,0,1,188.45,74.87Z" transform="translate(-89.59 -66)"/><path class="cls-6" d="M158.79,87.15c0-1.87,0-3.73,0-5.6v-.63h-2.28V79.79l.87,0c.35,0,.71,0,1.06,0a1.63,1.63,0,0,0,.37-.13,2.33,2.33,0,0,0,.55-.13c.91-.42,1.8-.87,2.7-1.29.27-.12.56-.18.84-.28v1.72a27.6,27.6,0,0,0,4.66,0l0-3.25a.9.9,0,0,0,1,0c.82-.43,1.66-.82,2.5-1.21a3.17,3.17,0,0,1,.64-.18l0,4.66a5.25,5.25,0,0,1-.78.58c-.7.37-1.42.67-2.11,1s-.67.37-1.24,0l0-.39h-4.6c0,1.51,0,3,0,4.52a3.13,3.13,0,0,0-.6.16c-1,.45-1.92.93-2.89,1.38A2.94,2.94,0,0,1,158.79,87.15Z" transform="translate(-89.59 -66)"/><path class="cls-7" d="M115.29,81c.06-.94.12-1.87.19-2.81,0-.19,0-.38.06-.57v-.21l.1-1.27v-.21c0-.74,0-1.48,0-2.22a4.8,4.8,0,0,0-.08-.85,1.25,1.25,0,0,0-1.43-1,4.18,4.18,0,0,0-3,1.61,2.08,2.08,0,0,0-.43,1.59.89.89,0,0,0,1.38.76,3.64,3.64,0,0,0,.48-.32.81.81,0,0,1,1.28.3,1.67,1.67,0,0,1,0,1.58,2.1,2.1,0,0,1-2.1,1.17A2.52,2.52,0,0,1,109.27,76a4.42,4.42,0,0,1,2-3.95A7.84,7.84,0,0,1,117,70.66a3,3,0,0,1,2.59,1.84,3.24,3.24,0,0,1,.25,1.18c-.07,1.81-.2,3.62-.3,5.43a1,1,0,0,1,0,.1.71.71,0,0,0-.21,0c-1.13.54-2.26,1.09-3.39,1.62A2.38,2.38,0,0,1,115.29,81Z" transform="translate(-89.59 -66)"/><path class="cls-8" d="M162.88,77.93c-.28.1-.57.16-.84.28-.9.42-1.79.87-2.7,1.29a2.33,2.33,0,0,1-.55.13c0-1.29,0-2.58,0-3.86v-3a3,3,0,0,0,0-.42.62.62,0,0,0-.68-.6,3.3,3.3,0,0,0-1.64.32,11,11,0,0,0-1.62.88,2.08,2.08,0,0,0-1,1.41,2.26,2.26,0,0,0,.06.93.76.76,0,0,0,1.08.53,3.14,3.14,0,0,0,.69-.39.83.83,0,0,1,1.31.34,1.83,1.83,0,0,1-.54,2.23,2.58,2.58,0,0,1-4-1.49,3.74,3.74,0,0,1,.51-2.84,5,5,0,0,1,1.84-1.78A9.53,9.53,0,0,1,159,70.64c.63,0,1.26,0,1.9,0a2,2,0,0,1,.47.07c1.36.33,1.57.88,1.55,2C162.88,74.41,162.89,76.17,162.88,77.93Z" transform="translate(-89.59 -66)"/><path class="cls-9" d="M204.06,75.94a5,5,0,0,0-.72.22,1.22,1.22,0,0,1-.74.18c.23-1,.46-2,.68-3a1.16,1.16,0,0,0-.77-1.41,3.51,3.51,0,0,0-1.67-.1A4.31,4.31,0,0,0,198,73.28a2.2,2.2,0,0,0-.54,1.66.91.91,0,0,0,1.5.77c.14-.08.27-.18.4-.26a.83.83,0,0,1,1.3.37,1.85,1.85,0,0,1-.95,2.44,2.54,2.54,0,0,1-3.55-1.5,3.91,3.91,0,0,1,1-4,6.61,6.61,0,0,1,3.32-1.87,9.79,9.79,0,0,1,4.75-.06,3.26,3.26,0,0,1,2.18,1.76A12.47,12.47,0,0,1,208,74c-.48.2-1,.39-1.44.61s-.88.44-1.32.65-.73.31-1.09.46Z" transform="translate(-89.59 -66)"/><path class="cls-10" d="M128.85,82.38l0,2.75c0,.79,0,1.58,0,2.37s.31.94,1,.81a6.34,6.34,0,0,0,.87-.29l.19.42a8.7,8.7,0,0,1-4,1.23,4.55,4.55,0,0,1-.73-.09,1.7,1.7,0,0,1-1.39-1.24l-.51.28a6.78,6.78,0,0,1-5.68.75,3.67,3.67,0,0,1-1.68-1,1,1,0,0,0,.25,0L119.92,87a2.54,2.54,0,0,0,3,1.07,5,5,0,0,0,1.81-.81V84.08a2.94,2.94,0,0,0,.6-.16c.92-.42,1.82-.88,2.74-1.3A5.82,5.82,0,0,1,128.85,82.38Z" transform="translate(-89.59 -66)"/><path class="cls-11" d="M158.79,87.15a2.94,2.94,0,0,0,.6-.16c1-.45,1.93-.93,2.89-1.38a3.13,3.13,0,0,1,.6-.16,12.3,12.3,0,0,1-.23,3.78,6.09,6.09,0,0,1-3.46,3.92,10.14,10.14,0,0,1-4.8.85,4.76,4.76,0,0,1-2.18-.58,1.09,1.09,0,0,1-.37-1.74,1.3,1.3,0,0,1,.35-.31.44.44,0,0,1,.68.14c.14.2.26.42.39.63a1.88,1.88,0,0,0,1.65,1,3.27,3.27,0,0,0,3.49-2.41,7.37,7.37,0,0,0,.36-2.18C158.78,88.06,158.78,87.6,158.79,87.15Z" transform="translate(-89.59 -66)"/><path class="cls-12" d="M119.92,87l-2.76,1.36a1,1,0,0,1-.25,0,4.42,4.42,0,0,1-1.57-2.73,7.91,7.91,0,0,1-.16-1.68c0-1,.07-2,.11-3a2.38,2.38,0,0,0,.6-.13c1.13-.53,2.26-1.08,3.39-1.62a.71.71,0,0,1,.21,0c-.06,1.58-.11,3.16-.16,4.74A6.67,6.67,0,0,0,119.92,87Z" transform="translate(-89.59 -66)"/><path class="cls-13" d="M124.77,78.89c0-1.27,0-2.54,0-3.81,0-.77,0-1.55,0-2.32s-.38-1-1.07-.8c-.26.07-.5.18-.77.28l-.2-.4a2.49,2.49,0,0,1,.37-.23,8.85,8.85,0,0,1,3.2-1,5.38,5.38,0,0,1,1.06,0,1.68,1.68,0,0,1,1.53,1.73c0,.66,0,1.31,0,2,0,1,0,1.9,0,2.85a7.39,7.39,0,0,0-.83.29c-.78.37-1.53.77-2.31,1.13A5.69,5.69,0,0,1,124.77,78.89Z" transform="translate(-89.59 -66)"/><path class="cls-14" d="M167.57,73.7a8.79,8.79,0,0,1,.92-4.45,5.6,5.6,0,0,1,6-3.18,9.72,9.72,0,0,1,1.49.34,2.4,2.4,0,0,1,.73.41,1.13,1.13,0,0,1,.4,1.19.79.79,0,0,1-.6.67.72.72,0,0,1-.72-.34,8.54,8.54,0,0,1-.56-.78,1.6,1.6,0,0,0-2.78.16,5.63,5.63,0,0,0-.4,1,15,15,0,0,0-.3,3l0,.69a2,2,0,0,0-.4.11l-2.59,1.24C168.06,74.08,168.07,74.09,167.57,73.7Z" transform="translate(-89.59 -66)"/><path class="cls-15" d="M188.45,74.87a1,1,0,0,0,1-.1c.81-.41,1.64-.79,2.47-1.18a2.65,2.65,0,0,1,.35,1.47,9.31,9.31,0,0,1-.23,2,3.74,3.74,0,0,1-2,2.45c-.31.16-.64.3-1,.46l1.24,1.41a1.54,1.54,0,0,1-.3.32l-2.32,1.1A4.43,4.43,0,0,1,187,83c-.46-.83-.93-1.66-1.4-2.49a.69.69,0,0,1,0-.68s.08,0,.12,0a1.94,1.94,0,0,0,2.18-1.27,5.66,5.66,0,0,0,.49-1.94C188.39,76,188.41,75.44,188.45,74.87Z" transform="translate(-89.59 -66)"/><path class="cls-16" d="M184.81,82c0,.37,0,.74,0,1.11,0,1.57,0,3.13,0,4.7a1.63,1.63,0,0,1-1.63,1.88,4.79,4.79,0,0,1-1.46-.13,1.38,1.38,0,0,1-1-1.48c0-1.3,0-2.61,0-3.91,0-.41,0-.81,0-1.22.07,0,.17.09.19.15.18.57.22.59.74.34.22-.11.44-.23.67-.33C183.14,82.69,184,82.33,184.81,82Z" transform="translate(-89.59 -66)"/><path class="cls-17" d="M107.33,77a4.28,4.28,0,0,1-3.1,3A10.53,10.53,0,0,1,107,83.76c-.18.1-.36.21-.55.3-.76.36-1.51.73-2.28,1.08a5.49,5.49,0,0,1-.69.21l-2.21-4.2c-.1-.19-.21-.38-.32-.55a.69.69,0,0,1-.06-.78h.23a1.74,1.74,0,0,0,1.8-.84l.22-.3a5.69,5.69,0,0,0,.94-.28c.66-.29,1.28-.67,1.94-.94C106.45,77.29,106.82,76.93,107.33,77Z" transform="translate(-89.59 -66)"/><path class="cls-18" d="M151.26,79c-.23.08-.48.14-.7.24-1,.46-1.94.92-2.9,1.4a.8.8,0,0,1-.75.06c0-.28,0-.56,0-.84a15.57,15.57,0,0,0-.71-5.3,3,3,0,0,0,.55-.15c.73-.34,1.44-.7,2.16-1.05a2.64,2.64,0,0,1,.3-.07,6.14,6.14,0,0,1,1.52,2.45A8.83,8.83,0,0,1,151.26,79Z" transform="translate(-89.59 -66)"/><path class="cls-19" d="M100.13,82.38l0,2.8c0,.86,0,1.72,0,2.59a4,4,0,0,1-.07.68A1.38,1.38,0,0,1,99,89.55a3.25,3.25,0,0,1-1.52.07A1.53,1.53,0,0,1,96,87.93c0-.93,0-1.87,0-2.8,0-.35,0-.7,0-1a1.45,1.45,0,0,0,.81-.19c1-.48,1.92-.93,2.89-1.39A2.52,2.52,0,0,1,100.13,82.38Z" transform="translate(-89.59 -66)"/><path class="cls-20" d="M167.57,81.32c.57.39.57.37,1.24,0s1.41-.65,2.11-1a5.25,5.25,0,0,0,.78-.58l2.5.05v1.1h-2.48c0,1.41,0,2.78,0,4.14a.66.66,0,0,0-.15,0l-3,1.39c-.5.24-.5.24-.82-.2a.52.52,0,0,0-.15-.06Z" transform="translate(-89.59 -66)"/><path class="cls-21" d="M103.49,85.35a5.49,5.49,0,0,0,.69-.21c.77-.35,1.52-.72,2.28-1.08.19-.09.37-.2.55-.3.51,1,1,2,1.52,3l1,1.89a3.28,3.28,0,0,1-.56.44c-.77.39-1.54.76-2.32,1.11a3.13,3.13,0,0,1-.6.16c-.45-.85-.92-1.7-1.36-2.56S103.88,86.15,103.49,85.35Z" transform="translate(-89.59 -66)"/><path class="cls-22" d="M124.77,78.89a5.69,5.69,0,0,0,.94-.28c.78-.36,1.53-.76,2.31-1.13a7.39,7.39,0,0,1,.83-.29c0,1,0,2,0,3,0,.72,0,1.44,0,2.15a5.82,5.82,0,0,0-.74.24c-.92.42-1.82.88-2.74,1.3a2.94,2.94,0,0,1-.6.16Z" transform="translate(-89.59 -66)"/><path class="cls-11" d="M184.81,82c-.84.37-1.67.73-2.5,1.11-.23.1-.45.22-.67.33-.52.25-.56.23-.74-.34,0-.06-.12-.1-.19-.15V77.83c.07.07.16.12.2.2.14.32.27.4.6.29a2.49,2.49,0,0,0,.33-.16c.74-.37,1.47-.75,2.22-1.09a3.75,3.75,0,0,1,.75-.19c0,1,0,2.09,0,3.14C184.83,80.67,184.82,81.31,184.81,82Z" transform="translate(-89.59 -66)"/><path class="cls-23" d="M141.25,82.17a2.35,2.35,0,0,0-.45.14l-3.13,1.51a3.44,3.44,0,0,1-.55.15c0-.28,0-.56,0-.84,0-1.15,0-2.31,0-3.46,0-.19,0-.38,0-.57a6.58,6.58,0,0,0,.89-.28c.77-.36,1.53-.77,2.3-1.13a6,6,0,0,1,.94-.28Z" transform="translate(-89.59 -66)"/><path class="cls-24" d="M167.57,86.19a.52.52,0,0,1,.15.06c.32.44.32.44.82.2l3-1.39a.66.66,0,0,1,.15,0c0,1.11,0,2.22,0,3.33,0,.87.34,1.25,1.32.89l.44-.18.08,0,.18.33c0,.06-.06.12-.1.14a6.26,6.26,0,0,1-3.25,1.15,4.07,4.07,0,0,1-1.2-.14,2,2,0,0,1-1.59-2C167.54,87.75,167.57,87,167.57,86.19Z" transform="translate(-89.59 -66)"/><path class="cls-25" d="M100.13,82.38a2.52,2.52,0,0,0-.39.12c-1,.46-1.94.91-2.89,1.39a1.45,1.45,0,0,1-.81.19V79.31a2.29,2.29,0,0,0,1.25-.37c.71-.32,1.39-.7,2.09-1a4.59,4.59,0,0,1,.75-.2Z" transform="translate(-89.59 -66)"/><path class="cls-26" d="M106,90.32a3.13,3.13,0,0,0,.6-.16c.78-.35,1.55-.72,2.32-1.11a3.28,3.28,0,0,0,.56-.44c.27.43.52.88.81,1.29a17.27,17.27,0,0,0,1.23,1.59,1.73,1.73,0,0,0,2.36.53l.26.46a4.66,4.66,0,0,1-.47.27,8,8,0,0,1-3.7.73,3.94,3.94,0,0,1-3-1.56A17.4,17.4,0,0,1,106,90.32Z" transform="translate(-89.59 -66)"/><path class="cls-27" d="M107.33,77c-.51,0-.88.31-1.3.48-.66.27-1.28.65-1.94.94a5.69,5.69,0,0,1-.94.28,8.28,8.28,0,0,0,.54-4.4,1.15,1.15,0,0,1,0-.26,2.32,2.32,0,0,0,.45-.13l2.5-1.24a3.56,3.56,0,0,1,.91,2.56A15.25,15.25,0,0,1,107.33,77Z" transform="translate(-89.59 -66)"/><path class="cls-28" d="M167.57,73.7c.5.39.49.38,1.12.08l2.59-1.24a2,2,0,0,1,.4-.11v2.65a3.17,3.17,0,0,0-.64.18c-.84.39-1.68.78-2.5,1.21a.9.9,0,0,1-1,0Z" transform="translate(-89.59 -66)"/><path class="cls-5" d="M115.55,77.41v0Z" transform="translate(-89.59 -66)"/><path class="cls-29" d="M141.25,82.17V77.41l0-3.86a4.54,4.54,0,0,1,0-.74,1.18,1.18,0,0,1,1.15-1.11,3,3,0,0,1,2.6,1,5.82,5.82,0,0,1,1.13,1.84,15.57,15.57,0,0,1,.71,5.3c0,.28,0,.56,0,.84-.1,1-.17,2.07-.33,3.09a7.71,7.71,0,0,1-1.07,3,3.31,3.31,0,0,1-2.86,1.62c-.94,0-1.37-.38-1.37-1.33,0-1.44,0-2.89,0-4.33C141.28,82.56,141.26,82.36,141.25,82.17Z" transform="translate(-89.59 -66)"/></svg>